<svg xmlns="http://www.w3.org/2000/svg" xmlns:xlink="http://www.w3.org/1999/xlink" version="1.1" x="0px" y="0px" viewBox="0 10 90 55" enable-background="new 0 0 90 90" xml:space="preserve"><path d="M78.559,44.369c-0.801-3.873-2.741-7.264-4.558-8.893c-0.874-0.784-1.689-1.369-2.486-1.803  c-0.114-0.523-0.265-1.033-0.462-1.525c-1.696-4.227-6.312-7.151-13.707-8.708c-2.409-2.625-6.24-4.028-11.441-4.143  c-6.755-0.147-11.265,1.286-13.881,4.396c-0.073,0.087-0.139,0.179-0.208,0.268c-6.222,1.81-10.477,4.876-12.313,8.903  c-0.085,0.187-0.143,0.383-0.218,0.572c-1.098,0.348-2.178,1.016-3.278,2.058c-1.824,1.727-3.74,5.137-4.524,8.992  c-4.462,4.811-7.191,13.021-6.246,15.242c0.185,0.436,0.554,0.755,1.041,0.898c0.201,0.059,0.427,0.086,0.673,0.086  c2.193,0,5.987-2.165,7.981-3.404c1.297,1.007,2.859,1.411,4.611,1.411c3.312,0,7.295-1.432,11.411-2.912l1.138-0.407  c2.135,0.588,4.107,0.723,5.599,0.723c0.57,0,1.053-0.019,1.467-0.036c1.9,1.527,3.932,2.401,5.953,2.427h0.074  c1.78,0,3.757-0.862,5.687-2.456l-0.001,0.052c0.287,0.006,0.573,0.009,0.855,0.009c2.287,0,4.413-0.221,6.417-0.853l0.048,0.018  c4.204,1.544,8.751,3.214,12.452,3.214c1.682,0,3.184-0.354,4.405-1.213c1.815,1.133,5.773,3.429,8.031,3.429  c0.25,0,0.479-0.028,0.681-0.089c0.482-0.145,0.849-0.463,1.031-0.895C85.645,57.721,83.011,49,78.559,44.369z M69.175,32.902  c1.478,3.681,0.053,8.604-4.232,14.632c-3.52,4.95-7.291,6.358-12.04,6.54c2.857-3.243,5.395-8.149,6.715-14.411  c1.244-5.912,1.038-10.425-0.592-13.744C63.264,27.074,67.672,29.157,69.175,32.902z M21.343,33.705  c1.653-3.624,5.418-5.818,8.993-7.133c-1.116,2.874-1.207,6.648-0.32,11.753c1.117,6.427,3.766,12.07,7.045,15.746  c-4.911-0.159-10.955-1.825-14.835-9.838C20.283,40.223,19.986,36.68,21.343,33.705z M11.131,48.162  c0.025,2.64,0.703,5.303,2.393,7.646c-2.993,1.834-5.56,2.864-6.465,2.896C6.965,57.317,8.278,52.343,11.131,48.162z M15.271,54.79  c-4.491-5.981-0.951-14.912,2.126-17.825c0.41-0.39,0.813-0.695,1.211-0.958c-0.385,2.772,0.204,5.819,1.797,9.107  c2.389,4.936,5.596,7.677,8.744,9.192C23.01,56.5,17.782,58.14,15.271,54.79z M45.135,56.492  c-4.776-0.061-11.153-7.156-13.126-18.513c-1.108-6.378-0.626-10.381,1.563-12.982c2.086-2.481,5.817-3.687,11.404-3.687  c0.29,0,0.584,0.003,0.884,0.01c4.866,0.107,8.333,1.398,10.318,3.831l-0.021,0.107c0.042,0.008,0.088,0.018,0.131,0.026  c2.271,2.911,2.716,7.476,1.35,13.961c-2.173,10.316-8.193,17.246-12.454,17.246 M60.851,54.101  c2.027-1.135,3.929-2.846,5.741-5.395c3.348-4.708,5.064-8.88,5.156-12.468c0.293,0.226,0.593,0.468,0.901,0.744  c3.262,2.924,6.538,11.904,2.107,17.808C72.425,57.896,66.526,56.142,60.851,54.101z M76.502,55.811  c1.722-2.387,2.403-5.099,2.418-7.774c2.72,4.05,4.104,9.262,4.042,10.668C82.056,58.67,79.518,57.66,76.502,55.811z" stroke="#E7BF60"/></svg>